<svg width="176" height="176" viewBox="0 0 176 176" fill="none" xmlns="http://www.w3.org/2000/svg">
<path fill-rule="evenodd" clip-rule="evenodd" d="M138.513 18.8514C138.625 19.1888 138.674 19.5321 138.667 19.8683C138.658 20.2429 138.579 20.6222 138.422 20.9875C138.059 21.8319 137.354 22.424 136.538 22.6719L125.615 26.3128C124.044 26.8367 122.345 25.9873 121.821 24.4154C121.297 22.8436 122.146 21.1446 123.718 20.6207L126.951 19.5431C100.23 9.67825 75.767 9.67729 49.0467 19.5423L52.2818 20.6207C53.8537 21.1446 54.7031 22.8436 54.1792 24.4154C53.6553 25.9873 51.9563 26.8367 50.3845 26.3128L39.3845 22.6461C37.8957 22.1499 37.055 20.5995 37.4155 19.1014C37.419 19.0865 37.4227 19.0716 37.4265 19.0568C37.446 18.9808 37.4684 18.9056 37.4937 18.8315L41.1538 7.85139C41.6777 6.27956 43.3767 5.43008 44.9485 5.95402C46.5203 6.47796 47.3698 8.17692 46.8459 9.74875L45.2408 14.5638C74.5542 3.33629 101.446 3.33786 130.76 14.5657L129.154 9.74875C128.63 8.17692 129.479 6.47796 131.051 5.95402C132.623 5.43008 134.322 6.27956 134.846 7.85139L138.513 18.8514ZM63.5555 40.6671C59.6664 40.6671 55.3333 44.7289 55.3333 51.3338V154C55.3333 160.605 59.6664 164.667 63.5555 164.667H112.444C116.334 164.667 120.667 160.605 120.667 154V51.3338C120.667 44.7289 116.334 40.6671 112.444 40.6671H102.32C102.329 40.7768 102.333 40.8879 102.333 40.9999C102.333 43.2091 100.542 44.9999 98.3332 44.9999H77.6665C75.4574 44.9999 73.6665 43.2091 73.6665 40.9999C73.6665 40.8879 73.6711 40.7768 73.6802 40.6671H63.5555ZM47.3333 51.3338C47.3333 41.7383 53.9444 32.6671 63.5555 32.6671H112.444C122.056 32.6671 128.667 41.7383 128.667 51.3338V154C128.667 163.596 122.056 172.667 112.444 172.667H63.5555C53.9444 172.667 47.3333 163.596 47.3333 154V51.3338ZM135 62.5857V53.8068L135.103 53.8665C137.495 55.2472 138.314 58.3052 136.933 60.6967C136.457 61.5223 135.78 62.1606 135 62.5857ZM135 127.181V117.906C136.462 117.152 138.265 117.135 139.795 118.018C142.186 119.399 143.006 122.457 141.625 124.849L141.45 125.152C140.141 127.419 137.326 128.273 135 127.181ZM135 135.838V133.761C135.143 134.438 135.147 135.145 135 135.838ZM40.9999 133.762V135.836C40.8527 135.145 40.8568 134.438 40.9999 133.762ZM40.9999 117.906V127.181C38.6735 128.273 35.8588 127.418 34.5504 125.152L34.3751 124.849C32.9944 122.457 33.8137 119.399 36.2052 118.018C37.7352 117.135 39.538 117.152 40.9999 117.906ZM40.9999 53.807V62.5855C40.2199 62.1605 39.5433 61.5222 39.0667 60.6967C37.686 58.3052 38.5054 55.2472 40.8968 53.8665L40.9999 53.807ZM17.9205 67.1353C18.0041 67.0848 18.0883 67.035 18.1732 66.986L18.3126 66.9055C20.704 65.5248 23.762 66.3442 25.1427 68.7357C26.5234 71.1271 25.704 74.1851 23.3126 75.5658L23.1732 75.6463C23.1458 75.6621 23.1187 75.6781 23.092 75.6943C20.7285 77.1223 17.6548 76.364 16.2267 74.0005C14.7987 71.637 15.557 68.5633 17.9205 67.1353ZM27.6352 67.2966C26.2544 64.9052 27.0738 61.8472 29.4653 60.4665L29.7441 60.3055C32.1356 58.9248 35.1935 59.7442 36.5742 62.1357C37.9549 64.5271 37.1356 67.5851 34.7441 68.9658L34.4653 69.1268C32.0738 70.5075 29.0159 69.6881 27.6352 67.2966ZM14.7151 80.6145C17.1308 79.2767 20.1737 80.1506 21.5115 82.5663C21.5283 82.5967 21.5455 82.627 21.563 82.6574L21.6506 82.8092C23.0313 85.2006 22.2119 88.2586 19.8205 89.6393C17.429 91.02 14.3711 90.2006 12.9904 87.8092L12.9027 87.6574C12.8554 87.5755 12.809 87.4933 12.7633 87.4109C11.4255 84.9951 12.2994 81.9523 14.7151 80.6145ZM21.8319 93.1231C24.2233 91.7424 27.2813 92.5618 28.662 94.9532L28.8373 95.2568C30.218 97.6483 29.3986 100.706 27.0071 102.087C24.6157 103.468 21.5577 102.648 20.177 100.257L20.0017 99.9532C18.621 97.5618 19.4404 94.5038 21.8319 93.1231ZM29.0185 105.571C31.41 104.19 34.4679 105.009 35.8487 107.401L36.0239 107.704C37.4047 110.096 36.5853 113.154 34.1938 114.535C31.8023 115.915 28.7444 115.096 27.3637 112.704L27.1884 112.401C25.8077 110.009 26.6271 106.951 29.0185 105.571ZM158.08 67.1353C157.996 67.0848 157.912 67.035 157.827 66.986L157.688 66.9055C155.296 65.5248 152.238 66.3442 150.857 68.7357C149.477 71.1271 150.296 74.1851 152.688 75.5658L152.827 75.6463C152.854 75.6621 152.881 75.6781 152.908 75.6943C155.272 77.1223 158.345 76.364 159.773 74.0005C161.201 71.637 160.443 68.5633 158.08 67.1353ZM148.365 67.2966C149.746 64.9052 148.926 61.8472 146.535 60.4665L146.256 60.3055C143.865 58.9248 140.807 59.7442 139.426 62.1357C138.045 64.5271 138.865 67.5851 141.256 68.9658L141.535 69.1268C143.926 70.5075 146.984 69.6881 148.365 67.2966ZM161.285 80.6145C158.869 79.2767 155.826 80.1506 154.489 82.5663C154.472 82.5967 154.455 82.627 154.437 82.6574L154.349 82.8092C152.969 85.2006 153.788 88.2586 156.18 89.6393C158.571 91.02 161.629 90.2006 163.01 87.8092L163.097 87.6574L163.125 87.61L163.165 87.5395L163.196 87.4846L163.237 87.4109C164.575 84.9951 163.701 81.9523 161.285 80.6145ZM154.168 93.1231C151.777 91.7424 148.719 92.5618 147.338 94.9532L147.163 95.2568C145.782 97.6483 146.601 100.706 148.993 102.087C151.384 103.468 154.442 102.648 155.823 100.257L155.998 99.9532C157.379 97.5618 156.56 94.5038 154.168 93.1231ZM146.982 105.571C144.59 104.19 141.532 105.009 140.151 107.401L139.976 107.704C138.595 110.096 139.415 113.154 141.806 114.535C144.198 115.915 147.256 115.096 148.636 112.704L148.812 112.401C150.192 110.009 149.373 106.951 146.982 105.571ZM87.9999 149C90.7613 149 92.9999 151.239 92.9999 154V154.075C92.9999 156.836 90.7613 159.075 87.9999 159.075C85.2385 159.075 82.9999 156.836 82.9999 154.075V154C82.9999 151.239 85.2385 149 87.9999 149Z" fill="white"/>
</svg>
