<svg width="140" height="140" viewBox="0 0 140 140" fill="none" xmlns="http://www.w3.org/2000/svg">
<path fill-rule="evenodd" clip-rule="evenodd" d="M43.9548 0C66.3224 0 84.7878 17.0665 87.5522 39.1472C85.2082 39.1219 82.8933 39.7896 80.887 41.0884C79.0158 21.9381 63.1949 6.98438 43.9548 6.98438C23.4554 6.98438 6.83741 23.9596 6.83741 44.8996C6.83741 65.1696 22.409 81.7244 41.9995 82.7631C41.8716 82.8273 41.7445 82.8936 41.6183 82.962C39.0974 84.3264 37.0322 86.4323 35.6734 89.0034C15.357 85.0468 0 66.8051 0 44.8996C0 20.1022 19.6792 0 43.9548 0ZM43.9548 18.9576C57.7611 18.9576 68.9942 30.2114 69.3426 44.2287C68.9526 44.2754 68.5644 44.3415 68.1792 44.4269C66.5362 44.7911 65.4485 45.1661 64.4372 46.0397C64.457 45.6622 64.467 45.2821 64.467 44.8996C64.467 33.3275 55.2834 23.9464 43.9548 23.9464C32.6262 23.9464 23.4426 33.3275 23.4426 44.8996C23.4426 55.665 31.3904 64.5342 41.6193 65.7184L45.0096 70.8196C44.6597 70.8342 44.3081 70.8415 43.9548 70.8415C29.9289 70.8415 18.5587 59.2269 18.5587 44.8996C18.5587 30.5722 29.9289 18.9576 43.9548 18.9576ZM38.1873 47.9215C38.655 45.3265 40.114 43.0227 42.2473 41.5212C44.3806 40.0197 47.0076 39.4475 49.548 39.9253C52.0876 40.4029 54.3328 41.8902 55.7938 44.0561L65.1927 57.99C65.4044 57.4948 65.6557 57.0166 65.9449 56.5606C66.6415 55.462 67.5435 54.5138 68.5995 53.7705C69.6555 53.0273 70.8441 52.504 72.0972 52.2304C73.3502 51.9567 74.6425 51.9381 75.9002 52.1746C77.1579 52.4112 78.3563 52.8982 79.4276 53.6069C79.6465 53.7518 79.8593 53.9053 80.0654 54.0671C80.7571 52.1547 82.0135 50.4886 83.6827 49.3138C85.816 47.8123 88.443 47.2401 90.9834 47.7179C92.5146 48.0058 93.9388 48.6608 95.1486 49.6103C95.8402 47.6979 97.0966 46.0319 98.7658 44.857C100.899 43.3555 103.526 42.7833 106.067 43.2611C108.606 43.7387 110.851 45.226 112.312 47.3919L124.99 66.1863C129.813 73.3368 131.66 82.1544 130.12 90.7018C128.579 99.2501 123.776 106.828 116.763 111.764L108.585 117.519C108.479 117.594 108.369 117.659 108.256 117.713C104.159 120.334 99.5306 121.979 94.715 122.518C89.4311 123.11 84.0883 122.352 79.1659 120.314L79.1637 120.313C78.6115 120.083 78.0598 119.853 77.5088 119.62C74.7952 118.48 64.8474 113.611 47.8016 105.092C45.5274 103.955 43.7788 101.958 42.9253 99.5262C42.0717 97.0938 42.179 94.4121 43.2316 92.0514C44.3003 89.6527 46.124 87.6856 48.4139 86.4644C50.7038 85.2433 53.3251 84.8401 55.86 85.3153L60.5459 86.1966L39.7416 55.3543C38.2807 53.1884 37.7197 50.5156 38.1873 47.9215ZM44.8364 45.3596C43.7166 46.1478 42.9461 47.36 42.6985 48.7338C42.4507 50.1085 42.7472 51.5322 43.5278 52.6894L67.4743 88.19C67.9987 88.9676 68.0086 89.994 67.4993 90.7894C66.9899 91.5847 66.062 91.9917 65.1494 91.8201L54.999 89.9112C53.4688 89.6243 51.8922 89.8684 50.5184 90.6011C49.1447 91.3336 48.0489 92.5144 47.4058 93.9581C46.8504 95.2038 46.7902 96.6278 47.2457 97.9256C47.7012 99.2238 48.6348 100.289 49.8452 100.894C66.9831 109.459 76.7459 114.233 79.2828 115.299L79.2853 115.3C79.83 115.529 80.3752 115.757 80.921 115.984C85.143 117.732 89.7216 118.38 94.2457 117.874C98.7674 117.367 103.094 115.723 106.838 113.088L106.847 113.082L114.173 107.925C120.173 103.703 124.288 97.2165 125.608 89.8894C126.929 82.5616 125.346 74.993 121.204 68.8512L108.526 50.0568C107.746 48.8996 106.549 48.1095 105.203 47.8565C103.858 47.6035 102.475 47.9072 101.355 48.6954C100.235 49.4836 99.4646 50.6958 99.217 52.0696C98.9711 53.4342 99.2615 54.8472 100.029 55.9998L102.5 60C103.5 61.5 102.639 63.1806 102 63.5C101.361 63.8194 100 64 98.5 62L96.2376 58.6565L93.443 54.5136C92.6624 53.3564 91.4656 52.5663 90.1199 52.3132C88.775 52.0603 87.3917 52.364 86.2719 53.1522C85.152 53.9404 84.3815 55.1526 84.1339 56.5264C83.8862 57.9011 84.1827 59.3248 84.9632 60.482L89.189 66.7468C89.904 67.8067 89.636 69.2626 88.5905 69.9984C87.545 70.7343 86.1178 70.4716 85.4028 69.4117L78.3598 58.9703C77.9735 58.3976 77.4808 57.9086 76.9102 57.5311C76.3396 57.1536 75.7029 56.8953 75.0367 56.77C74.3706 56.6447 73.6882 56.6549 73.0283 56.799C72.3684 56.9431 71.7434 57.2184 71.1886 57.6089C70.6338 57.9994 70.1594 58.4979 69.7926 59.0765C69.4257 59.655 69.1733 60.3028 69.0507 60.9832C68.9281 61.6637 68.9376 62.3635 69.0797 63.0425C69.2219 63.7216 69.4937 64.3661 69.88 64.9388L76.9229 75.3802C77.6379 76.4401 77.3699 77.8959 76.3244 78.6318C75.2788 79.3677 73.8517 79.105 73.1367 78.045L52.0076 46.721C51.227 45.5638 50.0302 44.7737 48.6845 44.5206C47.3396 44.2677 45.9563 44.5714 44.8364 45.3596Z" fill="white"/>
</svg>
