<svg width="24" height="24" viewBox="0 0 24 24" xmlns="http://www.w3.org/2000/svg">
<path fill-rule="evenodd" clip-rule="evenodd" d="M8.6171 3.76036C8.61198 3.76264 8.58605 3.77461 8.53033 3.83033L3.83033 8.53033C3.77461 8.58605 3.76264 8.61198 3.76036 8.6171L3.76025 8.61734C3.75892 8.62022 3.75 8.63954 3.75 8.7V15.3C3.75 15.3605 3.75892 15.3798 3.76025 15.3827L3.76036 15.3829C3.76264 15.388 3.77461 15.4139 3.83033 15.4697L8.53033 20.1697C8.58605 20.2254 8.61198 20.2374 8.6171 20.2396L8.61734 20.2397C8.62022 20.2411 8.63954 20.25 8.7 20.25H15.3C15.3605 20.25 15.3798 20.2411 15.3827 20.2397L15.3829 20.2396C15.388 20.2374 15.4139 20.2254 15.4697 20.1697L20.1697 15.4697C20.2254 15.4139 20.2374 15.388 20.2396 15.3829L20.2397 15.3827C20.2411 15.3798 20.25 15.3605 20.25 15.3V8.7C20.25 8.63954 20.2411 8.62022 20.2397 8.61734L20.2396 8.6171C20.2374 8.61198 20.2254 8.58605 20.1697 8.53033L15.4697 3.83033C15.4139 3.77461 15.388 3.76264 15.3829 3.76036L15.3827 3.76025C15.3798 3.75892 15.3605 3.75 15.3 3.75H8.7C8.63954 3.75 8.62022 3.75892 8.61734 3.76025L8.6171 3.76036ZM8.7 2.25H15.3C15.5375 2.25 15.769 2.29047 15.9921 2.38964C16.212 2.48736 16.3861 2.62539 16.5303 2.76967L21.2303 7.46967C21.3746 7.61395 21.5126 7.78802 21.6104 8.0079C21.7095 8.23103 21.75 8.46249 21.75 8.7V15.3C21.75 15.5375 21.7095 15.769 21.6104 15.9921C21.5126 16.212 21.3746 16.3861 21.2303 16.5303L16.5303 21.2303C16.3861 21.3746 16.212 21.5126 15.9921 21.6104C15.769 21.7095 15.5375 21.75 15.3 21.75H8.7C8.46249 21.75 8.23103 21.7095 8.0079 21.6104C7.78802 21.5126 7.61395 21.3746 7.46967 21.2303L2.76967 16.5303C2.62539 16.3861 2.48736 16.212 2.38964 15.9921C2.29047 15.769 2.25 15.5375 2.25 15.3V8.7C2.25 8.46249 2.29047 8.23103 2.38964 8.0079C2.48736 7.78802 2.62539 7.61395 2.76967 7.46967L7.46967 2.76967C7.61395 2.62539 7.78802 2.48736 8.0079 2.38964C8.23103 2.29047 8.46249 2.25 8.7 2.25ZM12 7.25C12.4142 7.25 12.75 7.58579 12.75 8V12C12.75 12.4142 12.4142 12.75 12 12.75C11.5858 12.75 11.25 12.4142 11.25 12V8C11.25 7.58579 11.5858 7.25 12 7.25ZM12 15.25C11.5858 15.25 11.25 15.5858 11.25 16C11.25 16.4142 11.5858 16.75 12 16.75H12.01C12.4242 16.75 12.76 16.4142 12.76 16C12.76 15.5858 12.4242 15.25 12.01 15.25H12Z"/>
</svg>
