<svg width="24" height="24" viewBox="0 0 24 24" xmlns="http://www.w3.org/2000/svg">
<path fill-rule="evenodd" clip-rule="evenodd" d="M12 3.25C12.2226 3.25 12.4337 3.34887 12.5762 3.51986L17.3513 9.25H21C21.231 9.25 21.449 9.3564 21.5912 9.53844C21.7333 9.72048 21.7836 9.95785 21.7276 10.1819L19.7348 18.1533C19.615 18.8493 19.3027 19.5004 18.8201 19.983C18.3285 20.4745 17.6834 20.7644 16.9915 20.75H7.00855C6.31664 20.7644 5.67149 20.4745 5.17996 19.983C4.69733 19.5004 4.38501 18.8493 4.26524 18.1533L2.2724 10.1819C2.21639 9.95785 2.26672 9.72048 2.40885 9.53844C2.55098 9.3564 2.76906 9.25 3.00001 9.25H6.64873L11.4238 3.51986C11.5663 3.34887 11.7774 3.25 12 3.25ZM17.0057 10.75H16.9951H7.00494H6.99427H3.96059L5.72761 17.8181C5.73266 17.8383 5.73687 17.8587 5.74022 17.8793C5.81169 18.3173 5.99989 18.6816 6.24062 18.9224C6.47752 19.1592 6.74115 19.2563 6.98111 19.2502L7.00001 19.25H17L17.0189 19.2502C17.2589 19.2563 17.5225 19.1592 17.7594 18.9224C18.0001 18.6816 18.1883 18.3173 18.2598 17.8793C18.2631 17.8587 18.2673 17.8383 18.2724 17.8181L20.0394 10.75H17.0057ZM12 5.17154L15.3987 9.25H8.60129L12 5.17154ZM10.75 15C10.75 14.3096 11.3097 13.75 12 13.75C12.6904 13.75 13.25 14.3096 13.25 15C13.25 15.6904 12.6904 16.25 12 16.25C11.3097 16.25 10.75 15.6904 10.75 15ZM12 12.25C10.4812 12.25 9.25001 13.4812 9.25001 15C9.25001 16.5188 10.4812 17.75 12 17.75C13.5188 17.75 14.75 16.5188 14.75 15C14.75 13.4812 13.5188 12.25 12 12.25Z"/>
</svg>
