<svg width="117" height="117" viewBox="0 0 117 117" fill="none" xmlns="http://www.w3.org/2000/svg">
<path d="M17.0833 3.66663H40.0419C41.6775 3.66663 43.1483 4.66243 43.7558 6.18106L54.3182 32.5871C55.0473 34.4099 54.3458 36.4925 52.6623 37.5026L42.7005 43.4796C40.9155 44.5507 40.2398 46.8187 41.2567 48.6352C47.6181 59.9983 57.0016 69.3818 68.3648 75.7433C70.1813 76.7602 72.4493 76.0845 73.5203 74.2994L79.4974 64.3377C80.5074 62.6542 82.59 61.9526 84.4129 62.6818L110.819 73.2442C112.338 73.8516 113.333 75.3225 113.333 76.9581V99.9166C113.333 103.32 111.981 106.584 109.575 108.991C107.168 111.398 103.904 112.75 100.5 112.75C75.4703 111.229 51.8627 100.6 34.1313 82.8686C16.4 65.1373 5.77107 41.5297 4.25 16.5C4.25 13.0963 5.60208 9.83214 8.0088 7.42542C10.4155 5.0187 13.6797 3.66663 17.0833 3.66663Z" fill="#E0B2FF"/>
<path d="M17.0833 3.66663H40.0419C41.6775 3.66663 43.1483 4.66243 43.7558 6.18106L54.3182 32.5871C55.0473 34.4099 54.3458 36.4925 52.6623 37.5026L42.7005 43.4796C40.9155 44.5507 40.2398 46.8187 41.2567 48.6352C47.6181 59.9983 57.0016 69.3818 68.3648 75.7433C70.1813 76.7602 72.4493 76.0845 73.5203 74.2994L79.4974 64.3377C80.5074 62.6542 82.59 61.9526 84.4129 62.6818L110.819 73.2442C112.338 73.8516 113.333 75.3225 113.333 76.9581V99.9166C113.333 103.32 111.981 106.584 109.575 108.991C107.168 111.398 103.904 112.75 100.5 112.75C75.4703 111.229 51.8627 100.6 34.1313 82.8686C16.4 65.1373 5.77107 41.5297 4.25 16.5C4.25 13.0963 5.60208 9.83214 8.0088 7.42542C10.4155 5.0187 13.6797 3.66663 17.0833 3.66663" stroke="white" stroke-width="7"/>
</svg>
