<svg width="24" height="24" viewBox="0 0 24 24" fill="none" xmlns="http://www.w3.org/2000/svg">
<path d="M14.0002 22C15.5915 22 17.1176 21.3679 18.2428 20.2426C19.368 19.1174 20.0002 17.5913 20.0002 16V7.5C20.0002 7.10218 19.8421 6.72064 19.5608 6.43934C19.2795 6.15804 18.898 6 18.5002 6C18.1024 6 17.7208 6.15804 17.4395 6.43934C17.1754 6.70342 17.02 7.05582 17.002 7.42712M14.0002 22H12.2082H12.2062M14.0002 22H12.2062M12.0002 22H12.2062M11.002 5.5C11.002 5.10218 10.8439 4.72064 10.5626 4.43934C10.2813 4.15804 9.89978 4 9.50195 4C9.10413 4 8.7226 4.15804 8.44129 4.43934C8.15999 4.72064 8.00195 5.10218 8.00195 5.5V13L6.53018 11.53C6.23572 11.2359 5.85143 11.0486 5.43834 10.9978C5.02526 10.9471 4.60706 11.0359 4.25018 11.25C3.91513 11.4509 3.67166 11.7745 3.57157 12.1522C3.47147 12.5298 3.52263 12.9315 3.71418 13.272C5.59318 16.612 6.68818 18.521 7.00018 19C7.06526 19.1002 7.13059 19.2002 7.19618 19.3C7.7427 20.1299 8.48676 20.811 9.36157 21.2823C10.2358 21.7532 11.2132 21.9998 12.2062 22M11.002 5.5V12M11.002 5.5V3.5C11.002 3.30302 11.0408 3.10796 11.1161 2.92597C11.1915 2.74399 11.302 2.57863 11.4413 2.43934C11.5806 2.30005 11.7459 2.18956 11.9279 2.11418C12.1099 2.0388 12.305 2 12.502 2C12.6989 2 12.894 2.0388 13.076 2.11418C13.258 2.18956 13.4233 2.30005 13.5626 2.43934C13.7019 2.57863 13.8124 2.74399 13.8878 2.92597C13.9632 3.10796 14.002 3.30302 14.002 3.5V5.5M14.002 12V5.5M14.002 5.5C14.002 5.10218 14.16 4.72064 14.4413 4.43934C14.7226 4.15804 15.1041 4 15.502 4C15.8998 4 16.2813 4.15804 16.5626 4.43934C16.8439 4.72064 17.002 5.10218 17.002 5.5V7.42712M17.002 7.42712C17.0008 7.45134 17.0002 7.47564 17.0002 7.5L17.002 12V7.42712Z" stroke="black" stroke-width="1.5" stroke-linecap="round" stroke-linejoin="round"/>
</svg>
