<svg width="55" height="105" viewBox="0 0 55 105" xmlns="http://www.w3.org/2000/svg"><title>B110AB47-2557-4048-A3D7-4104E78E1301</title><g fill="none" fill-rule="evenodd"><g><rect stroke="#7B8397" stroke-width="2" x="1" y="1" width="53" height="103" rx="6"/><rect fill="#888FA1" opacity=".1" x="4" y="12" width="47" height="81" rx="1"/></g><g stroke="#7B8397" stroke-width="2" stroke-linecap="round"><path d="M38.556 64.444L17 64.4l4.167-4.2v-7.7c0-1.162.25-2.268.694-3.248" stroke-linejoin="round"/><path d="M32.208 67.2a3.48 3.48 0 0 1-3.402 2.8 3.48 3.48 0 0 1-3.403-2.8M23.825 46.66a7.684 7.684 0 0 1 2.897-1.566V44.1c0-1.162.93-2.1 2.084-2.1 1.152 0 2.083.938 2.083 2.1v.994c3.208.91 5.555 3.906 5.555 7.406l-.003 5.55M17.694 45.08L41.14 66.67"/></g></g></svg>