<svg width="293" height="108" viewBox="0 0 293 108" fill="none" xmlns="http://www.w3.org/2000/svg">
<rect opacity="0.3" x="0.5" y="0.5" width="291" height="107" rx="3.5" stroke="#BDC0CB" stroke-dasharray="3 2.5"/>
<g opacity="0.7">
<path d="M0.503418 42C0.503418 19.0802 19.0836 0.5 42.0034 0.5H250.003C272.923 0.5 291.503 19.0802 291.503 42V107.5H0.503418V42Z" stroke="#E3E4E6"/>
<rect x="22.5" y="50.5" width="249" height="57" stroke="#E3E4E6"/>
</g>
<circle cx="146" cy="54" r="20" fill="#FAFAFA"/>
<path fill-rule="evenodd" clip-rule="evenodd" d="M150.83 47H154C155.1 47 156 47.9 156 49V61C156 62.1 155.1 63 154 63H138C136.9 63 136 62.1 136 61V49C136 47.9 136.9 47 138 47H141.17L143 45H149L150.83 47ZM155 62V48.2857H150.444L149.78 47.5429L148.385 46H143.615L142.22 47.5429L141.556 48.2857H137V62H155ZM146 50C143.24 50 141 52.24 141 55C141 57.76 143.24 60 146 60C148.76 60 151 57.76 151 55C151 52.24 148.76 50 146 50ZM142 55C142 57.2125 143.787 59 146 59C148.212 59 150 57.2125 150 55C150 52.7875 148.212 51 146 51C143.787 51 142 52.7875 142 55Z" fill="#444F6C"/>
</svg>
