<svg width="321" height="234" viewBox="0 0 321 234" fill="none" xmlns="http://www.w3.org/2000/svg">
<circle cx="160.5" cy="117.5" r="113.5" fill="#EDEDED"/>
<g filter="url(#filter0_d)">
<path d="M161.187 186.719C196.778 186.719 225.63 157.867 225.63 122.276C225.63 86.6851 196.778 57.833 161.187 57.833C125.596 57.833 96.7441 86.6851 96.7441 122.276C96.7441 157.867 125.596 186.719 161.187 186.719Z" fill="white"/>
</g>
<path fill-rule="evenodd" clip-rule="evenodd" d="M114.769 77.9082C114.638 77.9854 114.535 77.8361 114.64 77.726C120.084 72.0421 126.52 67.3983 133.633 64.0235C133.756 63.9648 133.896 63.9473 134.029 63.9774C134.146 64.0036 134.262 64.0322 134.378 64.0626C134.96 64.2149 134.897 65.1254 134.304 65.2249L134.033 65.2704C133.9 65.2926 133.806 65.4128 133.817 65.5471C133.827 65.6826 133.94 65.7871 134.076 65.7871H134.666C134.98 65.7599 135.292 65.7255 135.603 65.6899C135.825 65.6644 135.976 65.9085 135.853 66.0955C135.73 66.2841 135.884 66.5293 136.107 66.4961C137.202 66.3333 138.286 66.1049 139.353 65.8119C140.043 65.5469 140.781 65.4341 141.519 65.4812C142.428 65.5393 142.438 66.6067 141.604 66.9743C140.318 67.5412 139.071 68.1551 138.052 69.093C137.574 69.5334 137.971 70.2798 138.606 70.4203C138.653 70.4308 138.701 70.4453 138.742 70.4713C138.805 70.5108 138.862 70.5642 138.915 70.6279C139.243 71.0191 138.864 71.6545 138.355 71.6865C138.044 71.706 137.812 71.9622 138.011 72.2019C138.075 72.2789 138.149 72.3548 138.223 72.4312L138.223 72.4314L138.224 72.4314C138.539 72.7556 138.86 73.0859 138.457 73.5241C138.31 73.6841 138.275 73.9334 138.426 74.0901C138.624 74.2965 138.506 74.6407 138.222 74.6813L137.711 74.7546C137.473 74.7888 137.362 75.0694 137.513 75.2567C137.677 75.4597 137.533 75.762 137.272 75.762H135.747C135.418 75.762 135.079 75.906 134.968 76.2157C134.796 76.7004 135.031 77.0908 135.807 77.3924C136.189 77.5427 136.487 77.7278 136.691 77.9862C137.195 78.6275 136.23 79.2227 135.478 78.9074L134.954 78.6878C134.761 78.6069 134.538 78.6616 134.404 78.8224C134.161 79.1147 134.342 79.5597 134.72 79.5995L134.939 79.6226C135.513 79.683 135.669 80.4402 135.156 80.7056C133.54 81.5427 131.92 82.1845 130.06 82.2961C129.651 82.3271 129.18 82.8045 128.901 83.1951C127.89 84.5961 126.694 85.5508 124.834 85.3773C124.58 85.3525 124.022 85.9786 124.022 86.301C124.028 87.2929 123.854 88.0988 122.9 88.5948C122.782 88.6506 122.726 88.8675 122.689 89.0225C122.634 89.2515 122.577 89.4769 122.52 89.7018L122.52 89.7022L122.52 89.7022L122.52 89.7023C122.366 90.3111 122.213 90.9158 122.1 91.5767C121.952 92.4415 121.504 92.2423 121.01 92.0228L120.941 91.992C120.25 91.7297 119.575 91.4274 118.92 91.0869C118.465 90.829 118.084 90.4573 117.816 90.0082C116.897 88.3077 116.03 86.5723 115.182 84.8302C115.128 84.7201 115.087 84.6036 115.073 84.4821C115.058 84.3565 115.051 84.23 115.054 84.1037C115.059 83.8216 114.962 83.5379 114.741 83.363C114.311 83.0238 114.372 82.3556 114.855 82.0992L116.083 81.4473C116.371 81.2944 116.552 80.9949 116.552 80.6688C116.552 80.3015 116.324 79.9727 115.98 79.8436L114.393 79.2479C114.303 79.2143 114.25 79.1225 114.264 79.0279C114.281 78.9186 114.383 78.8433 114.493 78.859L114.77 78.8989C115.263 78.9697 115.519 78.33 115.112 78.0415L114.933 77.914C114.884 77.8797 114.82 77.8783 114.769 77.9082ZM209.783 79.9467C209.621 79.7597 209.359 79.7024 209.116 79.7517C209.009 79.7734 208.901 79.788 208.793 79.7955C208.463 79.8182 208.35 79.4302 208.592 79.2041C208.758 79.0485 208.769 78.788 208.614 78.6205C207.852 77.7926 207.064 76.985 206.257 76.1926C205.898 75.8399 205.405 76.1166 205.673 76.5424C205.897 76.898 205.691 77.4421 205.291 77.3111C204.93 77.1926 204.581 77.0378 204.234 76.8835C203.852 76.7137 203.472 76.5445 203.077 76.4252C202.237 76.2196 201.391 76.0415 200.539 75.8912C200.079 75.8098 199.845 76.3904 200.225 76.6627C200.517 76.8715 200.457 77.3168 200.113 77.4188L200.054 77.4362C199.831 77.5011 199.617 77.3641 199.44 77.2133C199.222 77.0269 198.98 77.1297 198.738 77.2327C198.585 77.2978 198.432 77.363 198.284 77.3551C197.92 77.3337 197.544 77.4671 197.174 77.5981C196.837 77.7177 196.506 77.8353 196.194 77.8312C195.903 77.8273 195.616 77.7303 195.333 77.6344C194.939 77.5015 194.552 77.3705 194.168 77.4915C193.178 77.8039 192.234 78.2459 191.36 78.8058C190.583 79.433 190.234 79.6126 189.738 79.0651C189.51 78.8127 189.651 78.4189 189.972 78.3076L190.146 78.2475C190.253 78.2106 190.324 78.1101 190.324 77.9972C190.324 77.8722 190.237 77.7642 190.115 77.7381L189.451 77.5962C188.835 77.4648 188.226 77.875 188.228 78.504C188.228 78.579 188.23 78.6539 188.233 78.7288C188.234 78.7676 188.24 78.8062 188.252 78.8434C188.366 79.2198 188.147 79.6825 187.758 79.7415C187.465 79.786 187.173 79.8399 186.884 79.9031C186.451 80.0557 186.026 80.2273 185.609 80.4174C185.418 80.5043 185.34 80.7315 185.431 80.92C185.565 81.1964 185.332 81.5091 185.029 81.4599L183.239 81.1693C183.151 81.1549 183.068 81.2172 183.058 81.3061C183.051 81.3656 183.078 81.424 183.128 81.4567L183.276 81.5529C183.591 81.758 183.51 82.2214 183.135 82.1972C182.224 82.1383 181.669 81.4728 181.602 80.3888C181.594 80.2506 181.519 80.1226 181.397 80.0573C181.068 79.8811 181.175 79.4813 181.533 79.5867C181.579 79.6003 181.625 79.6148 181.67 79.6303L181.799 79.6591C183.201 79.9731 184.62 80.2907 186.01 79.5869C186.741 79.2149 186.704 78.688 186.01 78.347C185.153 77.8773 184.251 77.4931 183.319 77.2001C182.171 76.8728 181.005 76.6161 179.835 76.3586C179.427 76.269 179.019 76.1792 178.612 76.0864C178.489 76.0584 178.425 75.9259 178.492 75.8193C178.557 75.7153 178.512 75.5662 178.393 75.5341C177.724 75.3532 177.044 75.2128 176.358 75.1137C176.316 75.1077 176.274 75.1075 176.232 75.1139C175.943 75.1586 175.66 75.2342 175.388 75.339C175.237 75.3969 175.051 75.284 175.118 75.1375C175.183 74.9957 175.061 74.8073 174.925 74.8843C174.809 74.9504 174.696 75.0178 174.588 75.0826L174.588 75.0827C174.145 75.3477 173.772 75.5708 173.474 75.5015C172.951 75.3824 172.481 75.5295 172.011 75.6769C171.551 75.821 171.091 75.9652 170.579 75.8611C170.234 75.7954 169.834 76.0477 169.471 76.3333C168.973 76.7246 168.388 76.9538 167.774 77.11C167.622 77.1488 167.47 77.1925 167.321 77.241C167.29 77.2508 167.261 77.2645 167.234 77.2818C167.078 77.3819 166.925 77.4868 166.776 77.5964C166.57 77.7472 166.719 78.0386 166.967 77.9785C167.196 77.923 167.367 78.1907 167.222 78.376L167.014 78.6406L167.014 78.6408C166.465 79.3433 165.881 80.0899 165.248 80.7896C165.149 80.8979 165.05 81.0113 164.949 81.1262C164.415 81.7345 163.844 82.3863 163.171 82.5688C162.079 82.8971 161.076 83.4695 160.239 84.2427C160.079 84.4164 159.957 84.6211 159.881 84.8441C159.804 85.067 159.774 85.3033 159.792 85.5383C159.9 86.2239 160.089 86.8941 160.356 87.5346C160.504 87.8824 160.778 88.1612 161.123 88.3144C161.469 88.4675 161.859 88.4835 162.216 88.3591C162.415 88.2577 162.636 88.109 162.857 87.9599C163.326 87.644 163.798 87.3257 164.076 87.4478C164.494 87.6411 164.756 88.1833 165.015 88.7197C165.113 88.9229 165.21 89.1253 165.316 89.3076C165.383 89.4214 165.442 89.5394 165.499 89.6546L165.533 89.723C165.613 89.8899 165.673 90.1061 165.734 90.3226C165.756 90.4029 165.779 90.4832 165.802 90.561C166.19 91.8478 168.354 90.4242 168.521 89.0906C168.524 88.7755 168.607 88.4662 168.762 88.1919C168.83 88.0704 168.912 87.9574 169.005 87.855C169.115 87.7347 169.255 87.6486 169.395 87.5626C169.554 87.4646 169.713 87.3669 169.826 87.2194C169.932 87.0795 169.995 86.9112 170.006 86.7358C170.017 86.5603 169.977 86.3854 169.889 86.233C169.785 86.0523 169.613 85.9311 169.441 85.8091C169.325 85.7272 169.208 85.6448 169.111 85.5438C168.619 85.0306 168.664 84.4956 169.29 83.8397C169.511 83.6055 169.791 83.429 170.073 83.2519C170.313 83.1009 170.554 82.9493 170.759 82.761C170.968 82.5694 171.132 82.3479 171.293 82.1302C171.477 81.883 171.656 81.6408 171.893 81.4529C172.401 81.0141 172.991 80.6811 173.629 80.4734C174.233 80.3097 174.352 81.4063 173.859 81.7914C173.324 82.2096 172.849 82.5823 172.389 82.9594C171.955 83.3066 171.441 85.4392 171.838 85.6561C172.567 86.0963 173.388 86.3635 174.237 86.4373C174.679 86.463 175.127 86.3271 175.578 86.1903C175.845 86.1092 176.113 86.0279 176.381 85.9797C176.464 85.9649 176.548 85.9606 176.632 85.9665C176.901 85.9856 177.167 86.036 177.424 86.1167C177.54 86.1533 177.616 86.2639 177.616 86.3861C177.616 86.538 177.5 86.665 177.348 86.6787L176.989 86.7112L176.989 86.7112L176.989 86.7112L176.988 86.7112L176.988 86.7112L176.988 86.7113C176.53 86.7524 176.075 86.7934 175.619 86.8402C175.093 86.8674 174.569 86.9296 174.051 87.0262C173.338 87.1812 173.245 87.6462 173.741 88.1111C174.119 88.4892 173.855 88.5171 173.416 88.5633C173.012 88.6059 172.46 88.664 172.126 89.0257C171.942 89.2252 171.82 89.6482 171.695 90.3181C171.629 91.022 171.291 91.7664 170.644 92.0512C170.44 92.1412 170.261 92.1844 170.139 92.1221C169.431 91.7822 168.842 91.9302 168.274 92.173C167.668 92.4314 166.994 92.4057 166.317 92.3798C165.869 92.3627 165.421 92.3455 164.99 92.4106C164.874 92.4282 164.761 92.4212 164.646 92.3968C164.278 92.3183 163.939 92.1377 163.667 91.8742C163.493 91.7254 163.375 91.1922 163.487 91.0744C163.757 90.7917 163.936 90.434 164.001 90.0481C164.104 89.4263 163.356 89.1365 162.84 89.4981C162.187 89.9558 162.263 90.2896 162.549 91.5432L162.557 91.5766C162.672 92.2263 162.232 92.8122 161.619 93.0567L160.714 93.418C160.314 93.5774 159.951 93.8159 159.646 94.119L159.644 94.1204L159.643 94.1213C159.068 94.6931 158.607 95.1505 158.143 95.6C158.067 95.6763 157.976 95.7422 157.886 95.8071L157.886 95.8071C157.736 95.9163 157.589 96.0226 157.523 96.1704C157.427 96.4031 157.285 96.6139 157.105 96.79C156.925 96.9661 156.711 97.1038 156.476 97.1948C156.242 97.2858 155.991 97.3282 155.739 97.3194C155.703 97.3182 155.667 97.3159 155.631 97.3125C155.353 97.2865 155.057 97.4958 155.091 97.7734C155.118 97.9905 154.944 98.1888 154.726 98.179L154.362 98.1629C153.793 98.1376 153.466 98.7857 153.848 99.2083C154.217 99.6171 154.601 100.012 155 100.392C155.168 100.585 155.279 100.781 155.347 100.978C155.847 102.437 153.944 103.523 152.406 103.397C150.683 103.255 149.878 105.212 149.639 106.925L149.63 106.989C149.505 107.885 149.381 108.778 149.685 109.652C149.817 110.032 150.223 110.218 150.623 110.17L150.646 110.168C150.993 110.126 151.394 110.348 151.604 110.626C151.842 110.943 152.189 111.015 152.575 110.927C153.821 110.643 154.999 110.357 155.698 109.597C156.144 109.111 156.142 108.409 156.133 107.749C156.131 107.611 156.146 107.499 156.197 107.416C156.462 107.036 156.784 106.715 157.104 106.394L157.104 106.394C157.307 106.192 157.509 105.989 157.697 105.773C157.774 105.684 157.863 105.592 157.954 105.499L157.954 105.499C158.248 105.194 158.56 104.871 158.546 104.577C158.484 103.368 159.209 103.436 159.873 103.703C160.154 103.855 160.48 103.908 160.795 103.852C161.061 103.804 161.306 103.682 161.504 103.5C161.523 103.483 161.542 103.465 161.561 103.447C161.615 103.396 161.668 103.345 161.727 103.3C162.388 102.789 163.288 103.002 163.833 103.635C163.86 103.666 163.887 103.697 163.915 103.727C164.461 104.462 165.085 105.135 165.775 105.736C165.924 105.843 166.075 105.946 166.226 106.048C166.993 106.57 167.734 107.074 167.96 107.917C168.033 108.189 168.549 108.388 168.714 108.161C168.761 108.098 168.775 108.017 168.754 107.942L168.606 107.423C168.518 107.115 168.829 106.845 169.122 106.975L169.387 107.093C169.553 107.167 169.857 106.943 169.704 106.845C169.699 106.842 169.695 106.84 169.691 106.838L169.683 106.833L169.676 106.828C169.381 106.63 169.128 106.377 168.875 106.124L168.875 106.124C168.667 105.916 168.459 105.708 168.227 105.529C168.018 105.368 167.772 105.252 167.529 105.137C167.137 104.951 166.751 104.769 166.531 104.403C166.382 104.207 166.258 103.992 166.133 103.777C165.994 103.536 165.855 103.296 165.682 103.083C165.097 102.375 165.002 101.901 165.398 101.568C165.752 101.271 166.252 101.565 166.519 101.942C166.58 102.009 166.705 102.041 166.819 102.069C166.936 102.098 167.042 102.124 167.058 102.184C167.307 103.125 168.01 103.512 168.75 103.92L168.75 103.92C168.892 103.998 169.036 104.077 169.178 104.161C169.711 104.49 170.418 105.122 170.418 105.618C170.418 107.132 171.14 108.253 171.857 109.366L171.972 109.545C172.387 110.191 173.383 110.247 173.713 109.553C173.74 109.497 173.762 109.438 173.773 109.376C173.835 109.044 173.79 108.701 173.642 108.396C173.557 108.235 173.469 108.077 173.377 107.92C173.17 107.567 173.439 107.346 173.748 107.093C173.797 107.053 173.847 107.012 173.896 106.97L173.997 106.878C174.106 106.78 174.199 106.696 174.282 106.624C174.926 106.065 175.467 107.203 175.403 108.054C175.366 108.546 175.493 108.971 175.734 109.402C175.937 109.767 176.154 110.114 176.444 110.255C176.608 110.329 176.764 110.459 176.924 110.591C177.369 110.959 177.845 111.354 178.62 110.671C178.844 110.472 179.431 110.683 180.019 110.894C180.252 110.977 180.484 111.06 180.695 111.119C180.77 111.14 180.854 111.158 180.92 111.117C181.702 110.759 182.555 111.453 182.366 112.292L182.307 112.555C182.133 113.326 181.971 114.047 181.806 114.769C181.602 115.661 181.261 116.331 180.139 116.362C179.48 116.362 179.479 117.421 179.931 117.902L180.361 118.36C180.603 118.616 180.566 119.026 180.283 119.236L180.072 119.393C179.997 119.449 179.965 119.548 179.996 119.637C180.032 119.746 180.149 119.802 180.259 119.768L180.964 119.555C181.42 119.417 181.916 119.612 182.154 120.024C182.292 120.262 182.434 120.515 182.563 120.776C183.015 121.687 183.443 122.636 183.852 123.547C184.118 124.153 184.359 124.768 184.602 125.387C184.66 125.534 184.718 125.681 184.776 125.828C184.863 126.059 184.929 126.297 184.994 126.536C185.088 126.874 185.181 127.211 185.334 127.521C185.667 128.121 186.04 128.699 186.45 129.25C187.331 130.529 187.52 131.986 187.71 133.442L187.71 133.442C187.769 133.892 187.828 134.342 187.907 134.787C188.024 135.45 188.31 135.698 188.923 135.406C190.029 134.895 191.105 134.321 192.147 133.689C192.645 133.363 193.108 132.982 193.57 132.603L193.57 132.603L193.57 132.602L193.57 132.602L193.57 132.602L193.57 132.602C194.126 132.146 194.68 131.689 195.296 131.327C196.343 130.799 197.265 130.053 197.999 129.139C198.113 128.977 198.212 128.804 198.311 128.63L198.311 128.63L198.312 128.63L198.312 128.63L198.312 128.63L198.312 128.629C198.379 128.511 198.447 128.393 198.52 128.277C198.672 127.97 198.854 127.679 199.066 127.409C200.361 125.983 200.095 124.725 198.365 123.876C198.015 123.659 197.754 123.325 197.627 122.933C197.51 122.39 196.808 122.142 196.486 122.596C196.37 122.759 196.259 122.925 196.152 123.094C195.957 123.481 195.717 123.624 195.456 123.662C194.775 123.762 194.126 123.045 193.994 122.369C193.968 122.229 193.939 122.09 193.897 121.903C193.851 121.697 193.567 121.672 193.485 121.867C193.411 122.042 193.166 122.046 193.086 121.875L191.761 119.042C191.487 118.458 191.534 117.694 192.076 117.345C192.551 117.038 192.817 117.352 193.337 118.358C193.443 118.559 193.536 118.766 193.616 118.978C193.752 119.378 193.972 119.743 194.262 120.05C194.552 120.356 194.905 120.596 195.297 120.753C195.689 120.911 196.11 120.981 196.531 120.961C197.206 120.927 197.869 121.237 198.298 121.759C198.601 122.128 199.016 122.216 199.971 122.276C201.03 122.343 202.122 122.32 203.161 122.297H203.162L203.163 122.297C203.324 122.294 203.484 122.29 203.642 122.287C204.26 122.275 204.848 122.542 205.256 123.006L206.994 124.982C207.116 125.12 207.065 125.337 206.895 125.408C206.71 125.484 206.67 125.729 206.821 125.86L207.879 126.777C208.067 126.94 208.353 126.916 208.511 126.724C208.75 126.433 209.218 126.554 209.282 126.925C209.34 127.264 209.399 127.609 209.458 127.959C209.739 129.623 210.04 131.402 210.485 133.15C210.544 133.42 210.605 133.689 210.67 133.957C211.409 137.029 215.154 137.251 214.942 134.098C214.763 132.975 215.495 131.963 216.308 131.168C216.622 130.861 216.924 130.547 217.155 130.187C217.468 129.698 217.899 129.3 218.331 128.903C219.038 128.251 219.743 127.601 219.92 126.554C219.958 126.337 220.423 126.126 220.726 126.052C220.988 125.984 221.253 125.922 221.52 125.865C222.492 125.655 223.42 126.342 223.859 127.234L223.88 127.277L223.899 127.316C223.916 127.349 223.937 127.381 223.959 127.411C224.372 127.961 225.407 127.764 225.458 127.078C226.064 118.938 225.12 110.748 222.666 102.947C220.002 94.4735 215.615 86.6433 209.783 79.9467ZM119.154 171.121C119.677 171.571 120.486 171.384 120.562 170.699C120.643 169.608 121.002 168.876 121.907 168.461C122.541 168.172 123.199 167.94 123.859 167.708L123.859 167.708C124.303 167.552 124.748 167.395 125.187 167.221C125.441 167.153 125.669 167.008 125.838 166.806C126.397 165.917 126.841 164.961 127.158 163.96C127.407 162.566 127.569 161.158 127.642 159.744C127.635 159.435 127.829 159.167 128.025 158.927C128.139 158.788 128.254 158.65 128.37 158.511C128.744 158.064 129.119 157.616 129.433 157.128C129.528 156.981 129.636 156.825 129.747 156.663L129.748 156.663L129.748 156.661L129.748 156.661C130.22 155.977 130.77 155.178 130.81 154.431C130.842 154.162 130.819 153.889 130.742 153.629C130.665 153.368 130.535 153.127 130.361 152.919C130.186 152.711 129.971 152.541 129.729 152.419C129.659 152.384 129.588 152.354 129.516 152.328C129.413 152.29 129.303 152.264 129.193 152.237C128.917 152.171 128.644 152.105 128.497 151.871C127.67 150.737 126.565 150.529 125.404 150.506C124.894 150.496 124.373 150.204 123.858 149.914C123.459 149.69 123.062 149.467 122.676 149.379C120.903 148.97 119.483 148.139 118.956 146.137C118.613 144.79 118.065 144.062 117.142 143.679C116.656 143.477 116.13 143.376 115.607 143.276C114.797 143.12 113.997 142.966 113.371 142.442C112.949 142.097 112.562 141.711 112.218 141.289C112.049 141.063 111.858 140.855 111.647 140.669C111.451 140.536 111.275 140.354 111.099 140.173C110.719 139.783 110.343 139.397 109.787 139.516L109.659 139.543C108.88 139.712 108.019 139.898 107.202 139.516C106.61 139.239 106.098 138.997 105.535 138.73C105.099 138.524 104.579 138.736 104.413 139.189L104.334 139.407C104.137 139.945 103.528 139.95 103.633 139.387C103.743 138.8 103.21 138.368 102.688 138.659C101.398 139.377 100.216 140.148 99.9196 141.868C99.9158 141.89 99.8909 141.902 99.8719 141.891C99.8472 141.875 99.8169 141.899 99.8258 141.927C103.455 153.263 110.148 163.365 119.154 171.121ZM111.934 100.286C110.5 101.007 109.073 101.725 107.259 101.309C106.533 101.144 105.931 101.409 105.395 101.823C105.12 102.036 105.448 102.52 105.777 102.407C106.219 102.288 106.679 102.253 107.135 102.301C107.24 102.314 107.451 102.903 107.37 102.977C106.502 103.814 106.8 104.471 107.612 105.054C108.703 105.835 109.094 105.748 109.825 104.663C109.869 104.586 109.932 104.522 110.008 104.476C110.12 104.409 110.221 104.531 110.184 104.657L110.098 104.952C110.055 105.097 110.21 105.221 110.342 105.146C110.42 105.101 110.52 105.127 110.564 105.205L110.569 105.214C110.62 105.303 110.587 105.416 110.497 105.464L106.682 107.501C106.642 107.522 106.596 107.528 106.552 107.518C106.437 107.491 106.375 107.365 106.425 107.258L106.591 106.901C106.788 106.476 106.355 106.041 105.935 106.248C105.053 106.682 104.19 107.152 103.347 107.658C103.134 107.798 103.137 108.255 103.14 108.715C103.141 108.896 103.143 109.078 103.131 109.24C103.127 109.287 103.153 109.332 103.196 109.352C103.287 109.393 103.279 109.522 103.183 109.549C102.897 109.627 102.606 109.683 102.311 109.716C101.332 109.734 100.755 109.995 100.65 111.154C100.612 111.597 100.321 112.021 100.006 112.479C99.9589 112.547 99.9114 112.616 99.8642 112.686C99.7523 112.852 99.4976 112.863 99.4475 112.669C99.3855 112.43 99.0719 112.41 99.0771 112.657C99.0827 112.919 99.0986 113.181 99.1249 113.442C99.5713 115.475 99.4721 115.791 97.7115 116.802C97.4368 116.974 97.0115 116.772 97.0402 116.449C97.7371 108.597 99.8779 100.943 103.354 93.8703C103.615 93.3391 104.434 93.2925 105.014 93.4113C105.074 93.4263 105.132 93.438 105.188 93.4466C105.727 93.5303 106.257 93.4533 106.751 93.3815C107.624 93.2547 108.386 93.144 108.895 93.963C109.025 94.1871 109.073 94.4766 109.119 94.7587C109.176 95.109 109.231 95.448 109.441 95.6369C110.132 96.1689 110.868 96.6398 111.641 97.0442C111.76 97.1065 111.826 97.2437 111.713 97.3166C111.578 97.4035 111.572 97.6587 111.729 97.6881C112.062 97.7501 112.388 97.8439 112.703 97.9683C112.743 97.9842 112.782 98.0054 112.815 98.0327C112.962 98.1516 113.086 98.2962 113.182 98.4595C113.198 98.4869 113.213 98.5148 113.227 98.5431C113.388 98.86 113.387 99.2562 113.173 99.54C113.066 99.6834 112.925 99.799 112.764 99.8773C112.485 100.008 112.209 100.147 111.934 100.286L111.934 100.286ZM162.985 145.121C163.289 145.622 163.397 146.218 163.289 146.795C162.787 148.506 162.774 149.938 164.169 151.37C164.757 151.998 165.208 152.742 165.493 153.555C165.778 154.367 165.891 155.229 165.824 156.088C165.809 156.323 165.867 156.557 165.992 156.757C166.521 157.465 166.26 157.991 165.918 158.682C165.891 158.736 165.864 158.79 165.837 158.846C165.006 160.557 164.206 162.312 165.384 164.321C165.434 164.405 165.483 164.489 165.533 164.574C166.184 165.674 166.845 166.794 166.897 168.251C166.861 169.748 167.39 171.204 168.378 172.33C168.998 173 169.618 174.091 169.532 174.922C169.46 175.345 169.528 175.781 169.726 176.162C169.924 176.544 170.241 176.85 170.629 177.036C170.984 176.877 171.353 176.755 171.732 176.67C172.795 176.641 173.855 176.529 174.9 176.335C177.386 175.618 178.674 173.559 179.937 171.541C180.006 171.43 180.075 171.319 180.145 171.208C180.308 170.951 180.294 170.585 180.278 170.151C180.269 169.925 180.26 169.68 180.275 169.423C180.312 169.402 180.359 169.374 180.416 169.341C180.6 169.233 180.879 169.07 181.168 168.933C181.397 168.859 181.609 168.738 181.789 168.578C181.969 168.418 182.114 168.222 182.214 168.002C182.314 167.783 182.366 167.545 182.369 167.303C182.371 167.062 182.323 166.823 182.228 166.602C182.178 166.428 182.113 166.257 182.047 166.084L182.047 166.084C181.959 165.851 181.87 165.615 181.813 165.362C181.757 165.133 181.726 164.742 181.85 164.649C182.235 164.297 182.641 163.961 183.047 163.627L183.047 163.627L183.047 163.627L183.048 163.627C183.563 163.202 184.076 162.779 184.54 162.324C184.623 162.245 184.71 162.164 184.799 162.083L184.799 162.082C185.305 161.614 185.857 161.102 185.979 160.533C186.115 159.499 186.062 158.448 185.824 157.433C185.767 157.084 185.621 156.75 185.475 156.415C185.333 156.088 185.19 155.761 185.129 155.418C185.09 155.198 185.112 154.953 185.136 154.7V154.7V154.7V154.7C185.186 154.156 185.239 153.575 184.689 153.118C184.59 153.038 184.64 152.622 184.757 152.461C185.142 151.931 185.504 151.372 185.867 150.814L185.867 150.813C186.739 149.47 187.611 148.125 188.793 147.167C190.853 145.498 191.957 143.344 193.081 141.149C193.168 140.979 193.256 140.809 193.344 140.639C193.594 139.923 193.742 139.176 193.784 138.419C193.268 138.55 192.77 138.679 192.283 138.805C191.175 139.093 190.128 139.365 189.072 139.597C188.91 139.603 188.748 139.569 188.601 139.499C188.454 139.429 188.327 139.324 188.229 139.194C188.113 138.999 188.058 138.762 188.003 138.528C187.938 138.249 187.873 137.973 187.708 137.775C187.396 137.392 187.023 137.057 186.648 136.719L186.648 136.719L186.648 136.719L186.648 136.718L186.647 136.718C186.36 136.46 186.071 136.199 185.805 135.915C185.451 135.585 185.172 135.184 184.987 134.737C184.788 134.129 184.489 133.571 184.189 133.011C183.729 132.153 183.267 131.29 183.158 130.236C183.088 129.564 182.675 128.936 182.256 128.299L182.256 128.299C182.006 127.919 181.754 127.535 181.571 127.136C180.95 125.819 180.406 124.468 179.94 123.088C179.599 122.078 179.029 122.164 178.223 122.381C177.625 122.584 176.985 122.631 176.363 122.518C175.16 122.169 173.976 121.755 172.817 121.278C171.776 120.881 170.957 121.334 170.846 122.388C170.778 123.15 170.449 123.566 169.718 123.008C169.464 122.814 169.126 122.725 168.782 122.634C168.134 122.463 167.464 122.287 167.294 121.396C167.294 121.373 167.233 121.371 167.156 121.369C167.067 121.367 166.957 121.364 166.891 121.328C166.474 121.147 166.002 121.122 165.541 121.097C164.781 121.055 164.053 121.016 163.667 120.286C163.911 119.575 164.118 118.956 164.332 118.32L164.334 118.313L164.335 118.311L164.491 117.843C163.988 117.732 163.476 117.661 162.96 117.633L162.786 117.639H162.786C161.505 117.686 160.225 117.733 158.962 117.905C158.013 118.031 157.083 118.276 156.197 118.637C154.789 119.214 153.432 119.728 152.167 118.711C151.99 118.906 151.824 119.109 151.66 119.31L151.659 119.31L151.659 119.31L151.659 119.31C151.247 119.813 150.851 120.296 150.351 120.571C149.951 120.77 149.615 121.077 149.382 121.457C149.148 121.838 149.026 122.276 149.03 122.722C149.03 124.142 148.286 124.638 147.17 124.985C146.884 125.067 146.633 125.241 146.457 125.481C145.794 126.56 145.131 127.645 144.56 128.779C144.486 128.928 144.4 129.073 144.314 129.217L144.314 129.217L144.314 129.217L144.314 129.217C143.941 129.843 143.569 130.467 144.164 131.414C144.591 132.084 144.517 133.274 144.244 134.123C143.899 135.323 143.812 136.582 143.99 137.818C144.07 138.099 144.227 138.352 144.443 138.55C144.519 138.64 144.615 138.717 144.711 138.793C144.824 138.883 144.936 138.972 145.013 139.083C145.623 140.102 146.298 141.082 147.034 142.015C147.883 142.818 148.777 143.571 149.712 144.272C149.958 144.483 150.259 144.619 150.58 144.664C150.901 144.709 151.228 144.661 151.522 144.526C152.485 144.343 153.462 144.247 154.442 144.241C154.821 144.226 155.197 144.17 155.564 144.073C156.308 143.764 157.068 143.493 157.839 143.261C157.949 143.237 158.065 143.207 158.185 143.176L158.185 143.176L158.185 143.176L158.185 143.176C158.907 142.988 159.748 142.769 160.04 143.769C160.369 144.823 160.964 144.786 161.807 144.706C162.022 144.685 162.239 144.711 162.442 144.783C162.645 144.855 162.831 144.97 162.985 145.121ZM188.223 165.828C187.814 166.708 187.932 168.4 188.638 169.002C188.798 169.146 188.99 169.248 189.199 169.299C189.408 169.35 189.626 169.349 189.834 169.296C190.042 169.243 190.234 169.138 190.392 168.993C190.55 168.848 190.669 168.665 190.74 168.462C191.189 166.975 191.593 165.479 191.997 163.982L191.998 163.98C192.197 163.245 192.395 162.509 192.6 161.773C192.618 161.711 192.623 161.642 192.628 161.573C192.636 161.456 192.644 161.34 192.718 161.259C192.988 160.851 193.1 160.358 193.034 159.874C192.968 159.389 192.728 158.945 192.358 158.624C191.912 158.957 191.603 159.428 191.295 159.899C190.708 160.794 190.123 161.687 188.595 161.618C188.595 161.875 188.601 162.125 188.606 162.37L188.606 162.371C188.617 162.849 188.628 163.311 188.595 163.769C188.587 164.471 188.461 165.167 188.223 165.828ZM168.527 69.1408L168.775 68.9376L168.775 68.9375L168.775 68.9374L168.775 68.9373C169.422 68.4056 169.978 67.949 170.573 67.5414C170.695 67.4802 170.83 67.4484 170.967 67.4484C171.104 67.4484 171.238 67.4802 171.361 67.5414C171.492 67.6301 171.553 67.8226 171.623 68.0382C171.655 68.1389 171.689 68.2447 171.732 68.3473H173.989C173.989 68.2047 173.989 68.0621 174.032 67.9257L167.697 65.3964C167.88 65.8228 167.984 66.0469 168.037 66.1613L168.038 66.1615L168.038 66.1616C168.062 66.2133 168.075 66.2426 168.081 66.2581L164.312 65.9295L164.225 66.3201C164.7 66.7772 165.252 67.1466 165.855 67.4112C166.241 67.5109 166.694 67.4013 167.144 67.2925L167.144 67.2925C167.337 67.2457 167.529 67.1992 167.715 67.1694L167.752 67.4608L166.32 67.9753L166.37 68.1737L167.498 68.2791L166.736 68.6696L168.527 69.1408ZM196.511 71.5459C195.642 72.4858 194.71 73.3661 193.722 74.1807C194.961 75.3772 196.524 75.5384 198.446 75.464C198.27 75.3397 198.103 75.2383 197.952 75.1463C197.652 74.9629 197.412 74.817 197.28 74.6023C197.082 74.2799 196.92 73.6537 197.088 73.4368C197.949 72.4092 199.021 71.5784 200.231 71.0004L200.231 71C199.822 70.6902 199.412 70.3803 198.991 70.0829C198.029 70.291 197.159 70.8041 196.511 71.5459ZM157.114 94.7876C157.147 94.6979 157.197 94.5959 157.246 94.4944C157.354 94.2732 157.461 94.0543 157.393 93.9693C157.22 93.8129 157.004 93.7133 156.773 93.6841C156.187 92.882 155.653 92.1446 155.123 91.4118L155.123 91.4113C154.833 91.0116 154.545 90.6132 154.25 90.2063C154.932 88.9664 154.901 88.5448 153.989 87.9559C153.425 87.5839 152.129 88.0985 151.565 88.923C151.299 89.3012 151.689 90.0203 152.694 90.975L152.551 91.7003C152.749 91.7003 152.892 91.7003 152.973 91.7561C153.07 91.8302 153.181 91.9016 153.292 91.9734L153.292 91.9734C153.59 92.1661 153.894 92.3622 153.971 92.624C154.076 92.9836 153.747 93.4238 153.152 93.1758C153.013 93.2843 152.911 93.4339 152.861 93.6036C152.833 93.8818 152.841 94.1601 152.851 94.4674V94.4674C152.856 94.6325 152.861 94.8059 152.861 94.9922L153.828 95.2836L152.117 96.5917L156.736 95.8539C156.796 95.6799 156.845 95.5365 156.887 95.414L156.887 95.4134L156.887 95.4133C156.982 95.1346 157.041 94.9641 157.114 94.7876ZM139.681 88.6002C139.227 88.7119 138.753 88.7119 138.299 88.6002C137.61 88.4514 136.941 88.2221 136.247 87.9493L137.083 87.3293L135.422 86.852L136.922 86.0647H135.267L135.106 85.8663L136.643 84.9798L136.513 84.5954L137.369 85.7423L140.896 84.9116L140.989 84.5272C141.618 84.9834 142.179 85.526 142.657 86.1391C143.037 86.7936 142.506 87.1231 142.04 87.4117C141.906 87.4949 141.777 87.5747 141.677 87.6579C141.077 88.0954 140.4 88.4152 139.681 88.6002ZM151.857 91.6201C152.39 91.8805 152.31 92.3455 151.77 92.6678C151.683 92.7236 151.652 92.9158 151.665 93.1204C151.657 93.2589 151.667 93.4306 151.677 93.602L151.677 93.6021C151.698 93.9445 151.718 94.2859 151.59 94.3603C150.815 94.7481 149.997 95.0456 149.154 95.2468C149.037 95.2729 148.88 95.116 148.726 94.9622L148.726 94.9621C148.66 94.8967 148.595 94.8318 148.534 94.7819L148.906 94.6021V92.7422C149.055 92.6037 149.197 92.4769 149.332 92.356L149.332 92.3557L149.333 92.3556C149.615 92.1031 149.87 91.8758 150.096 91.6201C150.633 90.975 151.17 91.2591 151.653 91.5147C151.722 91.5514 151.79 91.5875 151.857 91.6201ZM175.886 65.4706H169.934C170.711 65.8763 171.549 66.1527 172.414 66.2889C173.572 66.3093 174.729 66.2555 175.88 66.1277C175.886 65.9047 175.886 65.6878 175.886 65.471V65.4706Z" fill="#EDEDED"/>
<mask id="mask0" style="mask-type:alpha" maskUnits="userSpaceOnUse" x="47" y="4" width="227" height="227">
<path fill-rule="evenodd" clip-rule="evenodd" d="M160.5 231C223.184 231 274 180.184 274 117.5C274 54.8157 223.184 4 160.5 4C97.8157 4 47 54.8157 47 117.5C47 180.184 97.8157 231 160.5 231ZM225.63 122.276C225.63 157.867 196.778 186.719 161.187 186.719C125.596 186.719 96.7441 157.867 96.7441 122.276C96.7441 86.6851 125.596 57.833 161.187 57.833C196.778 57.833 225.63 86.6851 225.63 122.276Z" fill="#D0021B"/>
</mask>
<g mask="url(#mask0)">
<path fill-rule="evenodd" clip-rule="evenodd" d="M216.825 103.58C216.721 104.379 216.615 105.185 216.504 106.011C216.64 105.933 216.73 105.883 216.829 105.839L222.574 102.388C225.836 100.428 229.101 98.4679 232.368 96.507C234.276 95.3964 235.726 93.6214 236.44 91.5239C237.179 89.4149 237.141 87.1248 236.333 85.0796C235.525 83.0344 234.003 81.3733 232.048 80.4053C230.094 79.4374 227.841 79.2284 225.709 79.8172C223.576 80.4061 221.709 81.7528 220.455 83.6068C219.555 85.0027 219 86.5916 218.84 88.2353C218.433 91.4803 218 94.7241 217.568 97.9693C217.4 99.2327 217.231 100.496 217.064 101.76C216.984 102.366 216.905 102.971 216.825 103.58ZM227.872 93.2205C226.975 93.2377 226.099 92.9854 225.356 92.4958C224.365 91.8386 223.68 90.8056 223.451 89.6219C223.222 88.4381 223.467 87.1996 224.134 86.1762C224.634 85.4119 225.345 84.8094 226.175 84.4451C227.005 84.0808 227.917 83.971 228.796 84.1296C229.675 84.2881 230.482 84.708 231.114 85.336C231.746 85.964 232.174 86.7719 232.346 87.6573C232.517 88.5428 232.423 89.4661 232.076 90.3103C231.729 91.1545 231.144 91.8817 230.396 92.3997C229.647 92.9178 228.769 93.2034 227.872 93.2205ZM230.817 88.2411C230.929 88.7818 230.583 89.3114 230.042 89.4241L228.944 89.653L229.173 90.7507C229.286 91.2914 228.939 91.821 228.398 91.9337C227.857 92.0465 227.328 91.6995 227.215 91.1589L226.986 90.0612L225.889 90.29C225.348 90.4027 224.818 90.0558 224.705 89.5151C224.593 88.9745 224.94 88.4448 225.48 88.3321L226.578 88.1032L226.349 87.0055C226.237 86.4649 226.583 85.9352 227.124 85.8225C227.665 85.7098 228.194 86.0567 228.307 86.5974L228.536 87.6951L229.634 87.4662C230.174 87.3535 230.704 87.7004 230.817 88.2411Z" fill="#2C2C2C"/>
<path fill-rule="evenodd" clip-rule="evenodd" d="M128.504 74.1754C128.172 73.9505 127.844 73.7285 127.519 73.5084C126.822 73.0378 126.139 72.5757 125.458 72.1121C124.417 71.4082 123.377 70.7024 122.338 69.9967C120.145 68.508 117.953 67.0197 115.745 65.5502C114.542 64.7978 113.541 63.7632 112.829 62.5362C111.915 60.8588 111.64 58.9066 112.055 57.0419C112.471 55.1772 113.549 53.5266 115.089 52.3962C116.629 51.2659 118.527 50.7326 120.431 50.8954C122.334 51.0582 124.114 51.9059 125.44 53.2814C126.761 54.6434 127.53 56.4464 127.6 58.3425L128.163 68.1243L128.488 73.857L128.504 74.1754ZM121.692 62.1744C122.373 61.7906 122.925 61.2132 123.277 60.5154C123.63 59.8176 123.767 59.0309 123.673 58.2548C123.578 57.4787 123.255 56.7483 122.744 56.1561C122.234 55.5638 121.559 55.1364 120.806 54.928C120.052 54.7195 119.254 54.7395 118.511 54.9852C117.769 55.231 117.117 55.6916 116.636 56.3085C116.156 56.9255 115.87 57.6712 115.814 58.451C115.758 59.2308 115.935 60.0097 116.322 60.689C116.84 61.5928 117.694 62.2559 118.698 62.5345C119.702 62.8131 120.776 62.6848 121.686 62.1775L121.692 62.1744ZM120.582 56.1738C121.114 56.3207 121.427 56.8713 121.28 57.4037L121.076 58.1438L121.816 58.3479C122.348 58.4948 122.661 59.0454 122.514 59.5778C122.367 60.1102 121.816 60.4228 121.284 60.276L120.544 60.0719L120.34 60.812C120.193 61.3444 119.642 61.657 119.11 61.5102C118.578 61.3634 118.265 60.8127 118.412 60.2803L118.616 59.5402L117.876 59.3361C117.343 59.1893 117.031 58.6386 117.178 58.1062C117.324 57.5738 117.875 57.2612 118.407 57.4081L119.148 57.6122L119.352 56.872C119.499 56.3396 120.049 56.027 120.582 56.1738Z" fill="#2C2C2C"/>
</g>
<path fill-rule="evenodd" clip-rule="evenodd" d="M157.753 128.612L159.948 133.044L160.14 132.66C161.281 130.346 162.425 128.033 163.574 125.723C165.529 121.784 167.484 117.843 169.439 113.901C170.602 111.63 170.886 109.01 170.239 106.542C169.599 104.052 168.078 101.879 165.957 100.426C163.837 98.9732 161.261 98.3394 158.708 98.6424C156.155 98.9454 153.799 100.165 152.078 102.073C150.356 103.982 149.385 106.451 149.347 109.022C149.362 110.93 149.845 112.805 150.754 114.483C152.393 117.732 154 120.995 155.607 124.259C156.321 125.711 157.036 127.162 157.753 128.612ZM162.901 113.561C162.026 114.142 160.998 114.45 159.948 114.446L159.935 114.477C158.529 114.466 157.184 113.898 156.196 112.897C155.207 111.897 154.655 110.546 154.66 109.139C154.66 108.089 154.971 107.062 155.555 106.189C156.139 105.316 156.969 104.636 157.94 104.235C158.911 103.834 159.979 103.73 161.008 103.936C162.038 104.142 162.984 104.65 163.725 105.394C164.467 106.138 164.971 107.085 165.173 108.116C165.376 109.146 165.268 110.214 164.864 111.183C164.459 112.152 163.776 112.98 162.901 113.561ZM162.707 106.293C163.098 106.683 163.098 107.317 162.707 107.707L161.414 109L162.707 110.293C163.098 110.683 163.098 111.317 162.707 111.707C162.317 112.098 161.683 112.098 161.293 111.707L160 110.414L158.707 111.707C158.317 112.098 157.683 112.098 157.293 111.707C156.902 111.317 156.902 110.683 157.293 110.293L158.586 109L157.293 107.707C156.902 107.317 156.902 106.683 157.293 106.293C157.683 105.902 158.317 105.902 158.707 106.293L160 107.586L161.293 106.293C161.683 105.902 162.317 105.902 162.707 106.293Z" fill="#2C2C2C"/>
<path fill-rule="evenodd" clip-rule="evenodd" d="M115.804 150.224C116.344 150.726 116.889 151.233 117.451 151.751C117.455 151.707 117.46 151.667 117.464 151.63C117.471 151.563 117.478 151.505 117.482 151.448C117.669 149.538 117.856 147.631 118.045 145.725L118.988 135.967C119.204 134.083 118.72 132.186 117.63 130.634C116.531 129.072 114.903 127.961 113.047 127.508C111.191 127.055 109.233 127.29 107.538 128.171C105.842 129.051 104.524 130.517 103.827 132.296C103.13 134.075 103.102 136.046 103.748 137.844C104.262 139.169 105.093 140.347 106.169 141.275C108.303 143.226 110.416 145.199 112.529 147.173C113.27 147.865 114.01 148.556 114.752 149.247C115.102 149.572 115.452 149.897 115.804 150.224ZM114.385 137.453C113.929 138.088 113.294 138.573 112.561 138.847L112.55 138.851C111.573 139.212 110.494 139.173 109.546 138.743C108.598 138.312 107.859 137.525 107.489 136.552C107.21 135.821 107.155 135.024 107.331 134.262C107.506 133.5 107.904 132.807 108.473 132.271C109.043 131.735 109.759 131.381 110.53 131.252C111.302 131.124 112.094 131.227 112.807 131.549C113.519 131.872 114.12 132.398 114.533 133.062C114.946 133.727 115.152 134.499 115.126 135.28C115.1 136.062 114.842 136.818 114.385 137.453ZM112.386 132.347C112.89 132.574 113.114 133.166 112.887 133.67L112.427 134.692L113.449 135.152C113.953 135.379 114.177 135.971 113.95 136.475C113.723 136.978 113.131 137.203 112.628 136.976L111.605 136.516L111.145 137.538C110.918 138.041 110.326 138.266 109.822 138.039C109.319 137.812 109.094 137.22 109.321 136.717L109.782 135.694L108.759 135.234C108.256 135.007 108.031 134.415 108.258 133.911C108.485 133.408 109.077 133.183 109.581 133.41L110.603 133.871L111.064 132.848C111.29 132.345 111.882 132.12 112.386 132.347Z" fill="#2C2C2C"/>
<circle cx="297.5" cy="93.5" r="3.5" stroke="#EDEDED" stroke-width="2"/>
<circle cx="246.5" cy="15.5" r="3.5" stroke="#EDEDED" stroke-width="2"/>
<circle cx="29.5" cy="49.5" r="3.5" stroke="#EDEDED" stroke-width="2"/>
<circle cx="57.5" cy="192.5" r="3.5" stroke="#EDEDED" stroke-width="2"/>
<path fill-rule="evenodd" clip-rule="evenodd" d="M314 149C313.034 149 312.25 149.784 312.25 150.75V154.25H308.75C307.784 154.25 307 155.034 307 156C307 156.966 307.784 157.75 308.75 157.75H312.25V161.25C312.25 162.216 313.034 163 314 163C314.966 163 315.75 162.216 315.75 161.25V157.75H319.25C320.216 157.75 321 156.966 321 156C321 155.034 320.216 154.25 319.25 154.25H315.75V150.75C315.75 149.784 314.966 149 314 149Z" fill="#EDEDED"/>
<path fill-rule="evenodd" clip-rule="evenodd" d="M91 0C90.0335 0 89.25 0.783502 89.25 1.75V5.25H85.75C84.7835 5.25 84 6.0335 84 7C84 7.9665 84.7835 8.75 85.75 8.75H89.25V12.25C89.25 13.2165 90.0335 14 91 14C91.9665 14 92.75 13.2165 92.75 12.25V8.75H96.25C97.2165 8.75 98 7.9665 98 7C98 6.0335 97.2165 5.25 96.25 5.25H92.75V1.75C92.75 0.783502 91.9665 0 91 0Z" fill="#EDEDED"/>
<path fill-rule="evenodd" clip-rule="evenodd" d="M275 17C274.034 17 273.25 17.7835 273.25 18.75V22.25H269.75C268.784 22.25 268 23.0335 268 24C268 24.9665 268.784 25.75 269.75 25.75H273.25V29.25C273.25 30.2165 274.034 31 275 31C275.966 31 276.75 30.2165 276.75 29.25V25.75H280.25C281.216 25.75 282 24.9665 282 24C282 23.0335 281.216 22.25 280.25 22.25H276.75V18.75C276.75 17.7835 275.966 17 275 17Z" fill="#EDEDED"/>
<path fill-rule="evenodd" clip-rule="evenodd" d="M7 190C6.0335 190 5.25 190.784 5.25 191.75V195.25H1.75C0.783502 195.25 0 196.034 0 197C0 197.966 0.783502 198.75 1.75 198.75H5.25V202.25C5.25 203.216 6.0335 204 7 204C7.9665 204 8.75 203.216 8.75 202.25V198.75H12.25C13.2165 198.75 14 197.966 14 197C14 196.034 13.2165 195.25 12.25 195.25H8.75V191.75C8.75 190.784 7.9665 190 7 190Z" fill="#EDEDED"/>
<rect x="276.5" y="204.5" width="6" height="6" rx="1.5" stroke="#EDEDED"/>
<rect x="51.5" y="27.5" width="6" height="6" rx="1.5" stroke="#EDEDED"/>
<g filter="url(#filter1_d)">
<path fill-rule="evenodd" clip-rule="evenodd" d="M235.88 66.9051C235.944 66.6287 235.978 66.3459 235.979 66.062C235.979 63.6566 233.574 61.7224 230.61 61.7224C229.82 61.7202 229.035 61.8652 228.298 62.1502V62.0014C228.298 59.6022 225.893 57.6618 222.929 57.6618C221.952 57.6221 220.982 57.8428 220.118 58.3014C219.254 58.76 218.528 59.44 218.013 60.2717C217.427 60.1766 216.834 60.1289 216.24 60.1291C211.51 60.0858 207.623 63.0987 207.344 66.9051C204.554 66.9051 202.304 68.7649 202.304 71.0525C202.304 73.3401 204.591 75.1999 207.418 75.1999H222.098C226 75.1999 234.268 73.8034 235.88 66.9051ZM88.324 118.708H104.802C108.918 118.708 112.241 115.999 112.241 112.664C112.241 109.564 109.383 107.029 105.701 106.663C105.799 106.257 105.849 105.841 105.85 105.423C105.85 101.914 102.347 99.0748 98.0261 99.0748C96.8712 99.0705 95.7256 99.2808 94.6474 99.6947V99.484C94.6474 95.9751 91.1447 93.1357 86.8237 93.1357C83.6186 93.1357 80.8661 94.698 79.6572 96.936C78.8024 96.7982 77.9379 96.7298 77.072 96.7314C70.1721 96.7314 64.5306 101.071 64.0967 106.601C60.0298 106.644 56.7441 109.329 56.7441 112.645C56.7441 115.962 60.0856 118.69 64.1834 118.69L88.324 118.708ZM229.048 179.135C234.001 179.191 238 182.464 238 186.494L179.527 193.852C174.518 193.852 170.457 190.554 170.457 186.494C170.457 182.731 173.935 179.637 178.417 179.191C178.297 178.702 178.237 178.2 178.237 177.697C178.237 173.432 182.496 169.972 187.76 169.972C189.165 169.97 190.559 170.228 191.87 170.735V170.474C191.87 166.209 196.135 162.75 201.392 162.75C205.292 162.75 208.645 164.653 210.115 167.381C211.156 167.211 212.209 167.126 213.264 167.127C221.658 167.127 228.527 172.434 229.048 179.135Z" fill="white"/>
</g>
<defs>
<filter id="filter0_d" x="87.7441" y="47.833" width="156.886" height="156.886" filterUnits="userSpaceOnUse" color-interpolation-filters="sRGB">
<feFlood flood-opacity="0" result="BackgroundImageFix"/>
<feColorMatrix in="SourceAlpha" type="matrix" values="0 0 0 0 0 0 0 0 0 0 0 0 0 0 0 0 0 0 127 0" result="hardAlpha"/>
<feOffset dx="5" dy="4"/>
<feGaussianBlur stdDeviation="7"/>
<feColorMatrix type="matrix" values="0 0 0 0 0 0 0 0 0 0 0 0 0 0 0 0 0 0 0.1 0"/>
<feBlend mode="normal" in2="BackgroundImageFix" result="effect1_dropShadow"/>
<feBlend mode="normal" in="SourceGraphic" in2="effect1_dropShadow" result="shape"/>
</filter>
<filter id="filter1_d" x="47.7441" y="45.6572" width="209.256" height="164.195" filterUnits="userSpaceOnUse" color-interpolation-filters="sRGB">
<feFlood flood-opacity="0" result="BackgroundImageFix"/>
<feColorMatrix in="SourceAlpha" type="matrix" values="0 0 0 0 0 0 0 0 0 0 0 0 0 0 0 0 0 0 127 0" result="hardAlpha"/>
<feOffset dx="5" dy="2"/>
<feGaussianBlur stdDeviation="7"/>
<feColorMatrix type="matrix" values="0 0 0 0 0 0 0 0 0 0 0 0 0 0 0 0 0 0 0.1 0"/>
<feBlend mode="normal" in2="BackgroundImageFix" result="effect1_dropShadow"/>
<feBlend mode="normal" in="SourceGraphic" in2="effect1_dropShadow" result="shape"/>
</filter>
</defs>
</svg>
